# xmcd
#
# Track frame offsets:
#	150
#	13539
#	27418
#	40579
#	54276
#	67004
#	80292
#	94580
#	107938
#	123404
#	137066
#	150523
#	165311
#	178070
#	190295
#	204134
#	217347
#	230024
#
# Disc length: 3242 seconds
#
# Revision: 3
# Processed by: cddbd v1.5.2PL0 Copyright (c) Steve Scherf et al.
# Submitted via: audiograbber 1.83.01
#
DISCID=ee0ca812
DTITLE=Erroll Garner - Portrait  CD1 (Play, Piano, Play)
DYEAR=2002
DGENRE=Jazz
TTITLE0=For You
TTITLE1=Memories Of You
TTITLE2=Blue Skies
TTITLE3=Don't Blame Me
TTITLE4=Where Or When
TTITLE5=Pastel
TTITLE6=Trio
TTITLE7=Erroll's Bounce
TTITLE8=Erroll's Blues
TTITLE9=I Can't Escape From You
TTITLE10=Stairway To The Stars
TTITLE11=Play, Piano, Play
TTITLE12=Love Is The Strangest game
TTITLE13=Blues Garni
TTITLE14=Don't Worry 'Bout Me
TTITLE15=Loose Nut
TTITLE16=Love For Sale
TTITLE17=Frankie And Jonny Fantasy
EXTD=
EXTT0=
EXTT1=
EXTT2=
EXTT3=
EXTT4=
EXTT5=
EXTT6=
EXTT7=
EXTT8=
EXTT9=
EXTT10=
EXTT11=
EXTT12=
EXTT13=
EXTT14=
EXTT15=
EXTT16=
EXTT17=
PLAYORDER=
